# xmcd
# 
# Track frame offsets:
#     150
#     12582
#     22305
#     36771
#     52058
#     67492
#     83070
#     101303
#     115916
#     129510
#     145716
# 
# Disc length: 2128
# 
# Revision: 2
# Processed by: cddbd v1.5.2PL0 Copyright (c) Steve Scherf et al.
# Submitted via: fre:ac v1.0.17
# 
DISCID=9d084e0b
DTITLE=Reno Divorce - Tears Before Breakfast
DYEAR=2009
DGENRE=Punk Rock
TTITLE0=Supercharger
TTITLE1=Firecracker
TTITLE2=All show, no go!
TTITLE3=How long's it been?
TTITLE4=True love
TTITLE5=Our dreams are the same
TTITLE6=Say it
TTITLE7=I won't say no
TTITLE8=Can't win for losin'
TTITLE9=Behind closed doors
TTITLE10=One step closer to the edge
EXTD=
EXTT0=
EXTT1=
EXTT2=
EXTT3=
EXTT4=
EXTT5=
EXTT6=
EXTT7=
EXTT8=
EXTT9=
EXTT10=
PLAYORDER=
